<svg xmlns="http://www.w3.org/2000/svg" width="1120" height="620" viewBox="0 0 1120 620" role="img" aria-labelledby="title desc">
  <title id="title">Blog Bridge status view</title>
  <desc id="desc">A preview of the Blog Bridge sync status page with filters, pagination, sync status, commit links, and pull request links.</desc>
  <rect width="1120" height="620" fill="#f6f7f9"/>
  <rect x="48" y="42" width="1024" height="536" rx="12" fill="#ffffff" stroke="#d7dce2"/>
  <text x="86" y="98" fill="#1f2937" font-family="Inter, Arial, sans-serif" font-size="34" font-weight="700">Blog Bridge</text>
  <rect x="86" y="132" width="240" height="44" rx="8" fill="#f9fafb" stroke="#cfd6df"/>
  <text x="106" y="161" fill="#6b7280" font-family="Inter, Arial, sans-serif" font-size="15">Search title</text>
  <rect x="342" y="132" width="210" height="44" rx="8" fill="#f9fafb" stroke="#cfd6df"/>
  <text x="362" y="161" fill="#6b7280" font-family="Inter, Arial, sans-serif" font-size="15">Filter tag</text>
  <rect x="568" y="132" width="160" height="44" rx="8" fill="#f9fafb" stroke="#cfd6df"/>
  <text x="590" y="161" fill="#111827" font-family="Inter, Arial, sans-serif" font-size="15">Modified</text>
  <path d="M704 150l7 8 7-8" fill="none" stroke="#6b7280" stroke-width="2"/>
  <rect x="744" y="132" width="104" height="44" rx="8" fill="#2563eb"/>
  <text x="774" y="161" fill="#ffffff" font-family="Inter, Arial, sans-serif" font-size="15" font-weight="700">Search</text>
  <text x="86" y="218" fill="#6b7280" font-family="Inter, Arial, sans-serif" font-size="15">24 notes · page 1/2</text>
  <line x1="86" y1="244" x2="1034" y2="244" stroke="#e5e7eb"/>
  <g>
    <text x="86" y="287" fill="#111827" font-family="Inter, Arial, sans-serif" font-size="20" font-weight="700">Obsidian plugin publishing guide</text>
    <text x="86" y="317" fill="#6b7280" font-family="Inter, Arial, sans-serif" font-size="14">Blog/Hexo/Obsidian plugin publishing guide.md</text>
    <rect x="86" y="336" width="82" height="26" rx="5" fill="#fed7aa"/>
    <text x="105" y="354" fill="#9a3412" font-family="Inter, Arial, sans-serif" font-size="13" font-weight="700">Modified</text>
    <text x="184" y="354" fill="#6b7280" font-family="Inter, Arial, sans-serif" font-size="13">Synced 2026/5/11 10:42</text>
    <text x="356" y="354" fill="#6b7280" font-family="Inter, Arial, sans-serif" font-size="13">source/_posts/obsidian-plugin-publishing-guide.md</text>
    <text x="704" y="354" fill="#2563eb" font-family="Inter, Arial, sans-serif" font-size="13">a1b2c3d</text>
    <text x="770" y="354" fill="#2563eb" font-family="Inter, Arial, sans-serif" font-size="13">PR #12</text>
    <rect x="934" y="295" width="80" height="38" rx="8" fill="#111827"/>
    <text x="956" y="320" fill="#ffffff" font-family="Inter, Arial, sans-serif" font-size="14" font-weight="700">Sync</text>
  </g>
  <line x1="86" y1="386" x2="1034" y2="386" stroke="#e5e7eb"/>
  <g>
    <text x="86" y="429" fill="#111827" font-family="Inter, Arial, sans-serif" font-size="20" font-weight="700">Framework image path strategy</text>
    <text x="86" y="459" fill="#6b7280" font-family="Inter, Arial, sans-serif" font-size="14">Blog/Frameworks/image path strategy.md</text>
    <rect x="86" y="478" width="76" height="26" rx="5" fill="#dcfce7"/>
    <text x="108" y="496" fill="#166534" font-family="Inter, Arial, sans-serif" font-size="13" font-weight="700">Synced</text>
    <text x="178" y="496" fill="#6b7280" font-family="Inter, Arial, sans-serif" font-size="13">Synced 2026/5/10 21:30</text>
    <text x="350" y="496" fill="#6b7280" font-family="Inter, Arial, sans-serif" font-size="13">content/posts/image-path-strategy.md</text>
    <text x="688" y="496" fill="#2563eb" font-family="Inter, Arial, sans-serif" font-size="13">9f8e7d6</text>
    <rect x="934" y="437" width="80" height="38" rx="8" fill="#111827"/>
    <text x="956" y="462" fill="#ffffff" font-family="Inter, Arial, sans-serif" font-size="14" font-weight="700">Sync</text>
  </g>
</svg>
